<svg width="76" height="76" viewBox="0 0 76 76" fill="none" xmlns="http://www.w3.org/2000/svg">
<g filter="url(#filter0_d_30_730)">
<rect x="8" y="2" width="60" height="60" rx="8" fill="#1C1B1B" shape-rendering="crispEdges"/>
<path d="M39.2559 24.9203C37.1233 24.7247 34.9962 25.3958 33.2812 26.8109C31.5656 28.2269 30.3814 30.2899 29.9619 32.6078C29.7086 34.0223 29.7468 35.4811 30.0732 36.8773C30.6125 39.1647 31.901 41.1495 33.6865 42.4554C35.4715 43.7608 37.6297 44.2986 39.749 43.9701C41.8687 43.6416 43.8088 42.4682 45.1963 40.6674C46.5842 38.8659 47.3203 36.5642 47.2588 34.2015C47.1972 31.839 46.3429 29.5874 44.8643 27.8763C43.3861 26.1659 41.3887 25.116 39.2559 24.9203ZM38.4844 27.0013C38.7852 27.0013 39.0693 27.1331 39.2744 27.3578C39.4786 27.5815 39.5897 27.8805 39.5898 28.1879V32.5814C39.9356 32.82 40.2062 33.1644 40.3691 33.5687C40.5508 34.0197 40.5899 34.5228 40.4805 34.9994C40.3709 35.4761 40.1181 35.9037 39.7578 36.2113C39.397 36.5193 38.9486 36.6888 38.4844 36.6888C38.0203 36.6888 37.5726 36.5191 37.2119 36.2113C36.8516 35.9037 36.5988 35.4761 36.4893 34.9994C36.3798 34.5228 36.4189 34.0197 36.6006 33.5687C36.7635 33.1644 37.0341 32.82 37.3799 32.5814V28.1879C37.38 27.8804 37.4911 27.5816 37.6953 27.3578C37.9004 27.1332 38.1837 27.0015 38.4844 27.0013ZM44.5195 22.8422C45.7775 22.1666 47.2085 22.2458 48.0195 23.2826C48.6809 24.1282 48.7156 25.3652 48.2812 26.4965L48.123 26.9095L47.8506 26.5609C46.869 25.3015 45.738 24.192 44.4883 23.2631L44.1729 23.0287L44.5195 22.8422ZM28.9521 23.2826C29.7633 22.2457 31.195 22.1664 32.4531 22.8422L32.7988 23.0287L32.4834 23.2631C31.2343 24.1929 30.1034 25.3023 29.1211 26.5609L29.0459 26.6566H28.75L28.6885 26.4955C28.2572 25.3653 28.2881 24.1285 28.9521 23.2826ZM42.5977 20.1312C42.5977 20.3632 42.5139 20.5898 42.3584 20.7601C42.2021 20.9313 41.9846 21.0326 41.7529 21.0326H40.0098V22.6586C41.7854 22.9335 43.4714 23.682 44.918 24.8392C46.4233 26.0435 47.6196 27.6494 48.3936 29.5004C49.1673 31.3511 49.4942 33.3873 49.3438 35.4144C49.1933 37.4418 48.5697 39.3943 47.5322 41.0853C46.4947 42.7764 45.0769 44.1504 43.4121 45.0736C41.7471 45.9969 39.8919 46.4384 38.0244 46.3529C36.1571 46.2674 34.3428 45.6579 32.7549 44.5863C31.1671 43.5147 29.8587 42.017 28.9541 40.2377V40.2367C28.0667 38.4857 27.5974 36.5191 27.5889 34.5189C27.5803 32.5187 28.0329 30.5475 28.9053 28.7875C29.7777 27.0274 31.0424 25.5339 32.585 24.4476C34.0629 23.4069 35.7499 22.7733 37.501 22.599V21.0326H35.7529C35.5226 21.0304 35.307 20.928 35.1523 20.7572C34.9985 20.5871 34.915 20.3619 34.915 20.1312V18.5375C34.9159 18.3073 34.9997 18.0822 35.1533 17.9125C35.3076 17.7422 35.5223 17.6403 35.752 17.6371H41.7549C41.9856 17.6382 42.2017 17.7392 42.3574 17.9095C42.5126 18.0795 42.5968 18.306 42.5977 18.5375V20.1312Z" fill="#EE3C08" stroke="#EE3C08" stroke-width="0.5"/>
</g>
<defs>
<filter id="filter0_d_30_730" x="0" y="0" width="76" height="76" filterUnits="userSpaceOnUse" color-interpolation-filters="sRGB">
<feFlood flood-opacity="0" result="BackgroundImageFix"/>
<feColorMatrix in="SourceAlpha" type="matrix" values="0 0 0 0 0 0 0 0 0 0 0 0 0 0 0 0 0 0 127 0" result="hardAlpha"/>
<feOffset dy="6"/>
<feGaussianBlur stdDeviation="4"/>
<feComposite in2="hardAlpha" operator="out"/>
<feColorMatrix type="matrix" values="0 0 0 0 0 0 0 0 0 0 0 0 0 0 0 0 0 0 0.3 0"/>
<feBlend mode="normal" in2="BackgroundImageFix" result="effect1_dropShadow_30_730"/>
<feBlend mode="normal" in="SourceGraphic" in2="effect1_dropShadow_30_730" result="shape"/>
</filter>
</defs>
</svg>
