<svg width="76" height="76" viewBox="0 0 76 76" fill="none" xmlns="http://www.w3.org/2000/svg">
<g filter="url(#filter0_d_30_726)">
<rect x="8" y="2" width="60" height="60" rx="8" fill="#1C1B1B" shape-rendering="crispEdges"/>
<path d="M28.5416 41.7084H24.0016C22.2862 41.6629 20.9281 40.183 20.9616 38.3959V23.8126C20.9281 22.0255 22.2862 20.5456 24.0016 20.5001H35.4016C36.219 20.5001 36.8816 19.8099 36.8816 18.9584C36.8816 18.107 36.219 17.4168 35.4016 17.4168H24.0016C22.3858 17.4163 20.8381 18.0948 19.7087 19.2986C18.5794 20.5024 17.9639 22.1299 18.0016 23.8126V38.3959C17.9639 40.0787 18.5794 41.7061 19.7087 42.9099C20.8381 44.1138 22.3858 44.7922 24.0016 44.7918H28.5416C29.359 44.7918 30.0216 44.1015 30.0216 43.2501C30.0216 42.3987 29.359 41.7084 28.5416 41.7084Z" fill="#EE3C08"/>
<path fill-rule="evenodd" clip-rule="evenodd" d="M52.6816 23.2918H53.4016C55.294 23.2568 56.8579 24.8208 56.9016 26.7918V35.4168C56.8579 37.3877 55.294 38.9517 53.4016 38.9168H52.6616C52.471 42.2213 49.8397 44.7977 46.6616 44.7918H37.6016C36.7843 44.7918 36.1216 44.1015 36.1216 43.2501C36.1216 42.3987 36.7843 41.7084 37.6016 41.7084H46.6616C48.377 41.6629 49.7352 40.183 49.7016 38.3959V23.8126C49.7352 22.0255 48.377 20.5456 46.6616 20.5001H44.4016C43.5843 20.5001 42.9216 19.8099 42.9216 18.9584C42.9216 18.107 43.5843 17.4168 44.4016 17.4168H46.6816C49.8597 17.4108 52.491 19.9872 52.6816 23.2918ZM53.4016 35.7918C53.6816 35.7918 53.9016 35.6043 53.9016 35.4168V26.7918C53.9016 26.6043 53.6816 26.4168 53.4016 26.4168H52.7416V35.7918H53.4016Z" fill="#EE3C08"/>
<path d="M43.6016 30.9584C43.2379 30.0172 42.3752 29.3881 41.4016 29.3543H33.4016L41.7016 20.6876C42.3391 19.9946 42.3391 18.9014 41.7016 18.2084C41.3864 17.8789 40.9582 17.6937 40.5116 17.6937C40.0651 17.6937 39.6369 17.8789 39.3216 18.2084L29.6016 28.3959C28.8734 29.1437 28.6557 30.2782 29.0522 31.2601C29.4486 32.242 30.3792 32.8734 31.4016 32.8543H39.2816L30.9816 41.5209C30.6653 41.8493 30.4875 42.2953 30.4875 42.7605C30.4875 43.2257 30.6653 43.6717 30.9816 44.0001C31.2942 44.3256 31.7197 44.5059 32.1616 44.5001C32.6027 44.5013 33.0266 44.3217 33.3416 44.0001L43.0616 33.8751C43.8085 33.1156 44.0238 31.9528 43.6016 30.9584Z" fill="#EE3C08"/>
</g>
<defs>
<filter id="filter0_d_30_726" x="0" y="0" width="76" height="76" filterUnits="userSpaceOnUse" color-interpolation-filters="sRGB">
<feFlood flood-opacity="0" result="BackgroundImageFix"/>
<feColorMatrix in="SourceAlpha" type="matrix" values="0 0 0 0 0 0 0 0 0 0 0 0 0 0 0 0 0 0 127 0" result="hardAlpha"/>
<feOffset dy="6"/>
<feGaussianBlur stdDeviation="4"/>
<feComposite in2="hardAlpha" operator="out"/>
<feColorMatrix type="matrix" values="0 0 0 0 0 0 0 0 0 0 0 0 0 0 0 0 0 0 0.3 0"/>
<feBlend mode="normal" in2="BackgroundImageFix" result="effect1_dropShadow_30_726"/>
<feBlend mode="normal" in="SourceGraphic" in2="effect1_dropShadow_30_726" result="shape"/>
</filter>
</defs>
</svg>
